# xmcd
#
# Track frame offsets: 
#        150
#        25995
#        44200
#        62536
#        85431
#        111558
#        137120
#        162862
#        192298
#        230121
#        271424
#        303492
#
# Disc length: 4343 seconds
#
# Revision: 3
# Processed by: cddbd v1.5.2PL0 Copyright (c) Steve Scherf et al.
# Submitted via: ExactAudioCopy v1.0b3
#
DISCID=b410f50c
DTITLE=Various Artist - Blues Paradise  vol.2
DYEAR=2000
DGENRE=Blues
TTITLE0=Guitar Peter - Do You Heart The Rain
TTITLE1=Black Cat Bone and Mick Taylor - Ain`t That I Don`t Love You
TTITLE2=Alan Price and The Electric Blues Company - Good Time
TTITLE3=Tony McPhee - I`m Gonna Win
TTITLE4=Magic Slim and The Teardrops - Crazy Woman
TTITLE5=Nathan Cacvaleri Band - Back To The Blues
TTITLE6=Popa Chubby - Some Old Blues
TTITLE7=Carl Weathersby - Somebody Help Me
TTITLE8=Livin` Blues - Blue Breeze
TTITLE9=Stevie Ray Vaughan - Tin Pan Alley
TTITLE10=Sherman Robertson - I Wonder Why
TTITLE11=Marc Lelangue Blues Band - Mind To Travel
EXTD=YEAR: 2000 ID3G: 0
EXTT0=
EXTT1=
EXTT2=
EXTT3=
EXTT4=
EXTT5=
EXTT6=
EXTT7=
EXTT8=
EXTT9=
EXTT10=
EXTT11=
PLAYORDER=
